<?xml version="1.0" encoding="utf-8"?>
<!-- Generator: Adobe Illustrator 25.0.1, SVG Export Plug-In . SVG Version: 6.00 Build 0)  -->
<svg version="1.1" xmlns="http://www.w3.org/2000/svg" xmlns:xlink="http://www.w3.org/1999/xlink" x="0px" y="0px"
	 viewBox="0 0 1000 1000" style="enable-background:new 0 0 1000 1000;" xml:space="preserve">
<style type="text/css">
	.st0{fill:#FFFFFF;}
	.st1{fill:url(#SVGID_1_);}
	.st2{fill:url(#SVGID_2_);}
	.st3{fill:url(#SVGID_3_);}
	.st4{fill:url(#SVGID_4_);}
	.st5{fill:url(#SVGID_5_);}
	.st6{fill:#FFFFFF;enable-background:new    ;}
	.st7{fill:url(#SVGID_6_);}
	.st8{fill:url(#SVGID_7_);}
	.st9{opacity:0.7;fill:#FFFFFF;enable-background:new    ;}
</style>
<g id="Layer_2">
	<path class="st0" d="M929.55,362.94c-10.72-10.72-25.3-16.62-41.06-16.62c-15.69,0-30.35,6.22-41.29,17.53
		c-10.13,10.45-16.05,24.56-16.39,38.89c-14.49,15.05-33.69,25.94-57.25,32.49c-11.85-9.92-26.56-15.44-41.85-15.44
		c-1.19,0-2.39,0.04-3.59,0.1c-18.64,0.18-36.29,7.74-49.22,20.73c-14.23-1.55-28.47-3.98-42.48-7.25c-1.83-0.43-3.17-0.74-4.8-0.87
		c-3.6-0.35-7.61-0.67-12.05-0.97c0.02-0.2,0.02-0.41,0.02-0.61v-64.95c-0.99-57.3-16.64-102.4-46.5-134.05
		c-15.27-16.18-34.14-28.55-56.08-36.75c-14.37-5.37-30.16-8.98-47.16-10.78l13.08-6.54c5.64-2.82,9.62-8.14,10.74-14.34
		c1.11-6.21-0.76-12.58-5.07-17.19l-9.88-10.59c5.15-3.29,9.91-7.22,14.15-11.73c13.29-14.15,20.04-32.16,19.05-50.79
		c-0.16-19.11-7.66-37.22-21.17-51.04C476.78,7.87,458.08,0,438.09,0c-19.34,0-37.69,7.52-51.66,21.17
		c-14.29,13.98-22.17,32.68-22.17,52.66c0,19.34,7.52,37.69,21.17,51.66c10.61,10.85,23.94,18,38.49,20.82l5.11,5.69l-12.44,6.22
		c-8.97,4.49-13.23,14.91-9.97,24.39l1.03,2.99c-13.43,2.02-26.03,5.22-37.69,9.58c-21.95,8.21-40.77,20.59-55.93,36.8
		c-14.97,16.01-26.38,35.75-33.89,58.69c-7.29,22.22-10.98,47.67-10.98,75.65v64.6c0,1.24,0.11,2.45,0.33,3.62
		c-17.77,2.29-40.18,6.01-62.48,11.2c-31.28,7.27-55.43,15.72-72.01,25.19c-3.59-0.53-7.25-0.8-10.93-0.8
		c-18.47,0-35.93,7.12-49.18,20.04c-13.58,13.25-21.06,31.08-21.06,50.2c0,15.55,5.27,30.9,14.84,43.21
		c6.68,8.59,15.29,15.49,25,20.16c5.84,38.6,17.23,70.07,27.41,92.24c-2.92,6.97-4.44,14.43-4.44,22.04
		c0,15.68,6.23,30.35,17.53,41.29c10.76,10.41,25.4,16.39,40.15,16.39c15.68,0,30.35-6.23,41.29-17.53
		c10.41-10.76,16.39-25.4,16.39-40.15c0-25.87-15.97-47.37-39.32-54.85c-8-17.35-16.86-41.46-21.67-70.46
		c14.79-13.14,23.31-31.9,23.31-52.34c0-5.2-0.54-10.34-1.59-15.33c11.11-4.55,25.74-8.09,44.13-10.7v218.03
		c0,36.45,5.34,69.26,15.87,97.52c9.62,25.82,23.58,47.93,41.55,65.86v10.42H274.8c-25.43,0-46.91,21.48-46.91,46.91
		c0,25.43,21.48,46.92,46.91,46.92h109.46c11.05,0,20-8.95,20-20v-32.86c12.53,1.74,25.65,2.62,39.22,2.62s26.68-0.88,39.21-2.61
		V980c0,11.05,8.95,20,20,20h111.25c25.43,0,46.92-21.49,46.92-46.92c0-25.87-21.85-46.91-48.71-46.91h-19.48v-10.42
		c17.97-17.93,31.93-40.04,41.55-65.86c10.53-28.26,15.87-61.07,15.87-97.52V524.15c6.36,1.04,12.46,1.7,18.36,1.97
		c4.74,7.98,11.01,14.95,18.57,20.56c12.09,8.95,26.53,13.69,41.76,13.69c17.71,0,34.66-6.62,47.71-18.65
		c9.72-8.95,16.59-20.29,20.02-32.82c33.42-10.92,61.62-26.94,84.11-47.77c2.6,0.37,5.23,0.55,7.87,0.55
		c15.68,0,30.35-6.23,41.29-17.53c10.41-10.76,16.39-25.4,16.39-40.15C946.17,388.24,940.27,373.66,929.55,362.94z M289.16,366.32
		c0-93.49,43.43-150.78,125.11-161.46c6.6-0.87,13.46-1.43,20.57-1.68l-6.78-19.7l-2.53-7.37l35.89-17.94l-10.44-11.64l-17.05-19.02
		c-16.3-1.25-30.23-9.7-39.15-21.84c-6.65-9.05-10.52-20.15-10.52-31.84c0-30.5,25.12-53.83,53.83-53.83
		c30.51,0,53.84,25.12,53.84,53.83c1.22,19.62-10.12,37.56-27.16,46.95c-6.38,3.53-13.57,5.85-21.19,6.61l15.98,17.12l14.42,15.45
		L434.5,179.7l1.23,3.44l7.11,19.89h0.64c7.22,0,14.19,0.31,20.92,0.91c87.02,7.83,133.52,65.77,135.19,162.38v64.6H289.16V366.32z
		 M888.49,441.68c-4.81,0-9.5-0.96-13.86-2.72c-26.36,27.72-60.47,44.51-95.71,54.38c-1.67,27.09-24.23,47.03-50.14,47.03
		c-22.75,0-40.98-14.65-47.57-34.13c-2.11,0.03-4.2,0.04-6.26,0.04c-16.15,0-32.3-3.59-44.86-7.18v233.27
		c0,68.64-19.82,121.2-57.42,154.76v39.04h39.48c16.15,0,28.71,12.56,28.71,26.91c0,14.36-12.56,26.92-26.92,26.92H502.69v-57.03
		c-17.97,4.48-37.73,6.79-59.21,6.79c-21.49,0-41.24-2.31-59.22-6.79V980H274.8c-14.35,0-26.91-12.56-26.91-26.92
		c0-14.35,12.56-26.91,26.91-26.91h39.48v-39.04c-37.6-33.56-57.42-86.12-57.42-154.76V491.93c-35.51,3.22-68.11,9.36-88.67,23.62
		c3.93,7.23,6.13,15.66,6.13,24.82c0,18.95-10.16,34.77-24.81,43.34c5.17,42.31,18.87,76.09,29.37,96.88
		c19.21,2.11,33.12,17.45,33.12,37.43c0,19.74-16.15,37.68-37.68,37.68c-19.74,0-37.68-16.15-37.68-37.68
		c0-7.78,2.51-15.28,6.87-21.51c-11.93-23.84-26.24-60.72-31.61-107.36c-22.41-5.5-38.07-25.83-38.07-48.78
		c0-28.71,23.33-50.24,50.24-50.24c5.17,0,10.1,0.71,14.72,2.02c32.07-22.4,111.79-36.19,150.37-39.7
		c3.92-0.39,18.95-0.96,40.79-1.53c40.28-1.04,103.77-2.1,163.65-2.1c35.87,0,70.44,0.38,97.96,1.36c1.29,0.05,2.56,0.1,3.82,0.15
		c2.01,0.08,3.99,0.16,5.92,0.24c0.54,0.03,1.07,0.05,1.59,0.07c0.66,0.03,1.31,0.06,1.95,0.1c1.27,0.06,2.53,0.12,3.77,0.19
		c1.11,0.05,2.2,0.11,3.28,0.17c2.3,0.13,4.53,0.27,6.66,0.42c1.58,0.1,3.11,0.21,4.59,0.33c2.46,0.19,4.78,0.39,6.95,0.6
		c0.66,0,24.47,6.44,57.33,9.06c9.21-13.26,24.59-21.62,41.36-21.62c0.98-0.07,1.96-0.1,2.93-0.1c3.52,0,6.96,0.43,10.28,1.23
		c0.83,0.2,1.65,0.43,2.46,0.68c0.41,0.13,0.81,0.26,1.22,0.39c0.8,0.27,1.6,0.56,2.39,0.88c0.4,0.16,0.79,0.33,1.18,0.49
		c0.77,0.34,1.54,0.7,2.3,1.08c1.52,0.76,2.99,1.61,4.42,2.53c0.72,0.46,1.42,0.94,2.11,1.44c0.49,0.35,0.96,0.71,1.43,1.08
		c0.01,0.01,0.03,0.02,0.04,0.03c0.19,0.15,0.37,0.3,0.56,0.45c0.33,0.26,0.66,0.53,0.98,0.81c0.33,0.28,0.65,0.56,0.97,0.85
		c1.91,1.71,3.7,3.59,5.34,5.6c31.18-6.67,61.61-20.69,83.87-47.47c-0.3-1.9-0.46-3.86-0.46-5.86c0-19.74,16.15-37.68,37.69-37.68
		c21.53,0,37.68,16.15,37.68,37.68C926.17,423.74,910.02,441.68,888.49,441.68z"/>
</g>
<g id="Layer_1">
	<g>
		<linearGradient id="SVGID_1_" gradientUnits="userSpaceOnUse" x1="500" y1="980" x2="500" y2="366.32">
			<stop  offset="0" style="stop-color:#475154"/>
			<stop  offset="0.4345" style="stop-color:#575E61"/>
			<stop  offset="0.8311" style="stop-color:#818587"/>
			<stop  offset="1" style="stop-color:#A0A1A4"/>
		</linearGradient>
		<path class="st1" d="M888.49,366.32c-21.54,0-37.69,17.94-37.69,37.68c0,2,0.16,3.96,0.46,5.86
			c-22.26,26.78-52.69,40.8-83.87,47.47c-1.64-2.01-3.43-3.89-5.34-5.6c-0.32-0.29-0.64-0.57-0.97-0.85
			c-0.32-0.28-0.65-0.55-0.98-0.81c-0.19-0.15-0.37-0.3-0.56-0.45c-0.01-0.01-0.03-0.02-0.04-0.03c-0.47-0.37-0.95-0.73-1.43-1.08
			c-0.69-0.5-1.39-0.98-2.11-1.44c-1.43-0.92-2.9-1.77-4.42-2.53c-0.76-0.38-1.53-0.74-2.3-1.08c-0.39-0.16-0.78-0.33-1.18-0.49
			c-0.79-0.32-1.59-0.61-2.39-0.88c-0.41-0.13-0.81-0.26-1.22-0.39c-0.81-0.25-1.63-0.48-2.46-0.68c-3.32-0.8-6.76-1.23-10.28-1.23
			c-0.97,0-1.95,0.03-2.93,0.1c-16.77,0-32.15,8.36-41.36,21.62c-32.86-2.62-56.67-9.06-57.33-9.06c-2.17-0.21-4.49-0.41-6.95-0.6
			c-1.48-0.12-3.01-0.23-4.59-0.33c-2.13-0.15-4.36-0.29-6.66-0.42c-1.08-0.06-2.17-0.11-3.28-0.17c-1.24-0.07-2.5-0.13-3.77-0.19
			c-0.64-0.04-1.29-0.07-1.95-0.1c-0.52-0.02-1.05-0.04-1.59-0.07c-1.93-0.08-3.91-0.16-5.92-0.24c-1.26-0.05-2.53-0.1-3.82-0.15
			c-27.52-0.98-62.09-1.36-97.96-1.36c-59.88,0-123.37,1.06-163.65,2.1c-21.84,0.57-36.87,1.14-40.79,1.53
			c-38.58,3.51-118.3,17.3-150.37,39.7c-4.62-1.31-9.55-2.02-14.72-2.02c-26.91,0-50.24,21.53-50.24,50.24
			c0,22.95,15.66,43.28,38.07,48.78c5.37,46.64,19.68,83.52,31.61,107.36c-4.36,6.23-6.87,13.73-6.87,21.51
			c0,21.53,17.94,37.68,37.68,37.68c21.53,0,37.68-17.94,37.68-37.68c0-19.98-13.91-35.32-33.12-37.43
			c-10.5-20.79-24.2-54.57-29.37-96.88c14.65-8.57,24.81-24.39,24.81-43.34c0-9.16-2.2-17.59-6.13-24.82
			c20.56-14.26,53.16-20.4,88.67-23.62v240.44c0,68.64,19.82,121.2,57.42,154.76v39.04H274.8c-14.35,0-26.91,12.56-26.91,26.91
			c0,14.36,12.56,26.92,26.91,26.92h109.46v-57.03c17.98,4.48,37.73,6.79,59.22,6.79c21.48,0,41.24-2.31,59.21-6.79V980h111.25
			c14.36,0,26.92-12.56,26.92-26.92c0-14.35-12.56-26.91-28.71-26.91h-39.48v-39.04c37.6-33.56,57.42-86.12,57.42-154.76V499.1
			c12.56,3.59,28.71,7.18,44.86,7.18c2.06,0,4.15-0.01,6.26-0.04c6.59,19.48,24.82,34.13,47.57,34.13
			c25.91,0,48.47-19.94,50.14-47.03c35.24-9.87,69.35-26.66,95.71-54.38c4.36,1.76,9.05,2.72,13.86,2.72
			c21.53,0,37.68-17.94,37.68-37.68C926.17,382.47,910.02,366.32,888.49,366.32z M448.86,748.52c-53.83,0-96.9-43.06-96.9-96.89
			c0-53.84,43.07-96.9,96.9-96.9c53.83,0,96.9,43.06,96.9,96.9C545.76,705.46,502.69,748.52,448.86,748.52z"/>
		<path d="M602.89,450.64c-0.52-0.02-1.05-0.04-1.59-0.07c0.53,0.03,1.04,0.05,1.56,0.08c0.66,0.03,1.32,0.06,1.98,0.09
			C604.2,450.7,603.55,450.67,602.89,450.64z"/>
		<g>
			<path d="M435.73,183.14c-2.58,0.08-5.13,0.19-7.67,0.34l6.78,19.7c2.63-0.09,5.3-0.14,8-0.15L435.73,183.14z"/>
		</g>
	</g>
	<radialGradient id="SVGID_2_" cx="1340.3314" cy="2476.467" r="1844.8617" gradientUnits="userSpaceOnUse">
		<stop  offset="0" style="stop-color:#E5E2DF"/>
		<stop  offset="0" style="stop-color:#F4F2F1"/>
		<stop  offset="0" style="stop-color:#FFFFFF"/>
		<stop  offset="0.1226" style="stop-color:#EDECEC"/>
		<stop  offset="0.3567" style="stop-color:#C9C8C9"/>
		<stop  offset="0.5225" style="stop-color:#AEAFB1"/>
		<stop  offset="0.6075" style="stop-color:#A0A1A4"/>
		<stop  offset="0.7506" style="stop-color:#818587"/>
		<stop  offset="0.9331" style="stop-color:#575E61"/>
		<stop  offset="1" style="stop-color:#475154"/>
	</radialGradient>
	<path class="st2" d="M545.76,651.63c0,53.83-43.07,96.89-96.9,96.89c-53.83,0-96.9-43.06-96.9-96.89c0-53.84,43.07-96.9,96.9-96.9
		C502.69,554.73,545.76,597.79,545.76,651.63z"/>
	<g>
		<radialGradient id="SVGID_3_" cx="369.9499" cy="373.2902" r="97.6799" gradientUnits="userSpaceOnUse">
			<stop  offset="0" style="stop-color:#E5E2DF"/>
			<stop  offset="0" style="stop-color:#F4F2F1"/>
			<stop  offset="0" style="stop-color:#FFFFFF"/>
			<stop  offset="0.1226" style="stop-color:#EDECEC"/>
			<stop  offset="0.3567" style="stop-color:#C9C8C9"/>
			<stop  offset="0.5225" style="stop-color:#AEAFB1"/>
			<stop  offset="0.6075" style="stop-color:#A0A1A4"/>
			<stop  offset="0.7506" style="stop-color:#818587"/>
			<stop  offset="0.9331" style="stop-color:#575E61"/>
			<stop  offset="1" style="stop-color:#475154"/>
		</radialGradient>
		<polygon class="st3" points="434.5,179.7 452.45,229.94 445.27,233.53 425.53,176.11 461.42,158.17 450.98,146.53 433.93,127.51 
			421.76,113.93 421.75,113.92 414.77,106.13 419.23,100.48 441.68,72.04 447.07,77.42 425.62,103.81 423.74,106.13 433.59,116.68 
			443.58,127.39 459.56,144.51 473.98,159.96 		"/>
	</g>
	<g>
		
			<radialGradient id="SVGID_4_" cx="514.6577" cy="982.5953" r="437.977" gradientTransform="matrix(1 0 0 -1 0 1002.0056)" gradientUnits="userSpaceOnUse">
			<stop  offset="0" style="stop-color:#E5E2DF"/>
			<stop  offset="0" style="stop-color:#F4F2F1"/>
			<stop  offset="0" style="stop-color:#FFFFFF"/>
			<stop  offset="0.1226" style="stop-color:#EDECEC"/>
			<stop  offset="0.3567" style="stop-color:#C9C8C9"/>
			<stop  offset="0.5225" style="stop-color:#AEAFB1"/>
			<stop  offset="0.6075" style="stop-color:#A0A1A4"/>
			<stop  offset="0.7506" style="stop-color:#818587"/>
			<stop  offset="0.9331" style="stop-color:#575E61"/>
			<stop  offset="1" style="stop-color:#475154"/>
		</radialGradient>
		<path class="st4" d="M443.48,203.03c-100.49,0-154.32,59.21-154.32,163.29v64.6h310.43v-64.6
			C597.79,262.24,543.96,203.03,443.48,203.03z M502.69,312.49c16.15,0,30.51,14.35,30.51,30.5c0,17.94-12.56,30.51-30.51,30.51
			c-16.15,0-30.5-14.36-30.5-30.51S486.54,312.49,502.69,312.49z M382.47,312.49c16.15,0,30.5,14.35,30.5,30.5
			c0,17.94-14.35,30.51-30.5,30.51c-16.15,0-30.51-14.36-30.51-30.51S366.32,312.49,382.47,312.49z"/>
	</g>
	<path class="st0" d="M545.76,651.63c0,53.83-43.07,96.89-96.9,96.89c-53.83,0-96.9-43.06-96.9-96.89c0-53.84,43.07-96.9,96.9-96.9
		C502.69,554.73,545.76,597.79,545.76,651.63z"/>
	
		<radialGradient id="SVGID_5_" cx="470.2274" cy="432.2984" r="147.6713" gradientTransform="matrix(1 0 0 -1 0 1002.0056)" gradientUnits="userSpaceOnUse">
		<stop  offset="0" style="stop-color:#D2E5A6"/>
		<stop  offset="0.5" style="stop-color:#ACD479"/>
		<stop  offset="1" style="stop-color:#77B843"/>
	</radialGradient>
	<path class="st5" d="M524.22,651.63c0,41.27-34.09,75.36-75.36,75.36s-75.36-34.09-75.36-75.36s34.09-75.36,75.36-75.36
		S524.22,610.36,524.22,651.63z"/>
	<path class="st6" d="M473.98,603.18c0,8.97-10.77,16.15-25.12,16.15s-25.12-7.18-25.12-16.15s10.77-16.15,25.12-16.15
		C461.42,585.23,473.98,594.21,473.98,603.18z"/>
	<g>
		<g>
			<radialGradient id="SVGID_6_" cx="438.6993" cy="75.1969" r="54.4065" gradientUnits="userSpaceOnUse">
				<stop  offset="0" style="stop-color:#E5E2DF"/>
				<stop  offset="0" style="stop-color:#F4F2F1"/>
				<stop  offset="0" style="stop-color:#FFFFFF"/>
				<stop  offset="0.1226" style="stop-color:#EDECEC"/>
				<stop  offset="0.3567" style="stop-color:#C9C8C9"/>
				<stop  offset="0.5225" style="stop-color:#AEAFB1"/>
				<stop  offset="0.6075" style="stop-color:#A0A1A4"/>
				<stop  offset="0.7506" style="stop-color:#818587"/>
				<stop  offset="0.9331" style="stop-color:#575E61"/>
				<stop  offset="1" style="stop-color:#475154"/>
			</radialGradient>
			<path class="st7" d="M464.77,120.78c-6.38,3.53-13.57,5.85-21.19,6.61c-1.8,0.18-3.64,0.27-5.49,0.27c-1.4,0-2.79-0.05-4.16-0.15
				c-16.3-1.25-30.23-9.7-39.15-21.84c-6.65-9.05-10.52-20.15-10.52-31.84c0-30.5,25.12-53.83,53.83-53.83
				c30.51,0,53.84,25.12,53.84,53.83C493.15,93.45,481.81,111.39,464.77,120.78z"/>
		</g>
		<path class="st0" d="M482.95,72.04c0,25.12-19.74,44.86-44.86,44.86s-44.86-19.74-44.86-44.86s19.74-44.86,44.86-44.86
			C463.21,28.97,482.95,48.71,482.95,72.04z"/>
		
			<radialGradient id="SVGID_7_" cx="448.3448" cy="966.8139" r="66.9344" gradientTransform="matrix(1 0 0 -1 0 1002.0056)" gradientUnits="userSpaceOnUse">
			<stop  offset="0" style="stop-color:#D2E5A6"/>
			<stop  offset="0.5" style="stop-color:#ACD479"/>
			<stop  offset="1" style="stop-color:#77B843"/>
		</radialGradient>
		<path class="st8" d="M472.19,72.04c0,19.74-16.15,34.09-34.09,34.09c-19.74,0-34.09-16.15-34.09-34.09
			c0-19.74,16.15-34.09,34.09-34.09C457.83,37.94,472.19,54.09,472.19,72.04z"/>
		<path class="st9" d="M450.65,50.5c0,3.59-5.38,7.18-10.77,7.18c-7.18,0-10.77-3.59-10.77-7.18s5.38-7.18,10.77-7.18
			S450.65,45.12,450.65,50.5z"/>
	</g>
</g>
</svg>